<?xml version="1.0" encoding="UTF-8"?>
<svg id="LogoText" xmlns="http://www.w3.org/2000/svg" viewBox="0 0 350.81 75">
  <defs>
    <style>
      .cls-1 {
        fill: #404066;
      }

      .cls-1, .cls-2, .cls-3 {
        stroke-width: 0px;
      }

      .cls-2 {
        fill: #8279ff;
      }

      .cls-3 {
        fill: #f2f2f2;
      }
    </style>
  </defs>
  <g id="LogoText">
    <path class="cls-2" d="m184.05,15.87h0c0,2.52-2.04,4.57-4.56,4.57h-9.68c-1.28,0-2.26-1.05-2.28-2.32s-1.03-2.24-2.28-2.24h-11.96c-.63,0-1.2.25-1.61.67-.42.41-.67.98-.67,1.61s-.25,1.2-.67,1.61c-.41.42-.98.67-1.61.67h-12.64c-3.25,0-6.19,1.32-8.32,3.45s-3.45,5.07-3.45,8.32v28.41c0,1.99-1.07,3.07-3.07,3.07h-4.81c-1.69,0-3.06-1.37-3.06-3.06V20.44h-12.97c-1.7,0-3.07-1.37-3.07-3.07v-2.99c0-1.99,1.07-3.07,3.07-3.07h79.08c2.52,0,4.56,2.04,4.56,4.56Z"/>
    <path class="cls-2" d="m197.08,14.38v2.99c0,1.7-1.37,3.07-3.07,3.07h-1.95c-2.52,0-4.56-2.04-4.56-4.56h0c0-2.52,2.04-4.57,4.56-4.57h1.95c2,0,3.07,1.08,3.07,3.07Z"/>
    <path class="cls-2" d="m159.27,23.89c-11.2,0-20.28,9.08-20.28,20.28s9.08,20.28,20.28,20.28,20.28-9.08,20.28-20.28-9.08-20.28-20.28-20.28Zm0,32.12c-6.57,0-11.9-5.33-11.9-11.9s5.33-11.9,11.9-11.9,11.9,5.33,11.9,11.9-5.33,11.9-11.9,11.9Z"/>
    <g>
      <path class="cls-1" d="m216.05,13.49l10.79,20.38h.51l10.79-20.38c.79-1.51,1.94-2.17,3.63-2.17h5.7c2.43,0,3.35,1.53,2.15,3.66l-17.03,30.2v15.45c0,1.99-1.07,3.07-3.07,3.07h-4.86c-1.99,0-3.07-1.07-3.07-3.07v-15.45l-17.03-30.2c-1.2-2.12-.28-3.66,2.15-3.66h5.7c1.69,0,2.84.67,3.63,2.17Z"/>
      <path class="cls-1" d="m247.77,44.2c0-12.17,7.42-20.31,19.33-20.31s19.33,8.13,19.33,20.31-7.42,20.25-19.33,20.25-19.33-8.16-19.33-20.25Zm19.39,11.82c5.4,0,8.21-5.04,8.21-11.89s-2.81-11.92-8.21-11.92-8.31,5.06-8.31,11.92,2.81,11.89,8.31,11.89Z"/>
      <path class="cls-1" d="m321.8,24.41h4.76c1.99,0,3.07,1.07,3.07,3.07v33.14c0,1.99-1.07,3.07-3.07,3.07h-4.32c-2,0-3.07-1.07-3.07-3.07v-4.07h-.41c-1.76,4.6-6.01,7.65-11.92,7.65-7.9,0-13.27-5.6-13.3-14.78v-21.94c0-1.99,1.07-3.07,3.07-3.07h4.76c2,0,3.07,1.07,3.07,3.07v20c.03,4.63,2.69,7.52,6.8,7.52s7.52-2.76,7.49-8.03v-19.49c0-1.99,1.07-3.07,3.07-3.07Z"/>
      <path class="cls-1" d="m338.53,58.22c-.03-3.35,2.76-6.09,6.14-6.09s6.11,2.74,6.14,6.09c-.03,3.4-2.86,6.14-6.14,6.14s-6.16-2.74-6.14-6.14Z"/>
    </g>
    <path class="cls-2" d="m50.5,75h-26c-17.57,0-24.5-6.93-24.5-24.5v-25.5C0,7.17,7.17,0,25,0h25c17.83,0,25,7.17,25,25v25.5c0,17.57-6.93,24.5-24.5,24.5Z"/>
    <path class="cls-3" d="m74.85,54.67c-1.08,14.51-8.24,20.33-24.35,20.33h-26c-5.32,0-9.67-.64-13.14-2.01-.27-1.11-.42-2.26-.42-3.46,0-7.91,6.42-14.33,14.33-14.33,1.18,0,2.34.15,3.44.42.85-12.02,10.88-21.51,23.11-21.51s21.73,8.98,23.03,20.55Z"/>
    <circle class="cls-1" cx="19.79" cy="19.79" r="8.85"/>
  </g>
</svg>