<?xml version="1.0" encoding="UTF-8"?>
<svg id="logo" xmlns="http://www.w3.org/2000/svg" viewBox="0 0 150 150">
  <defs>
    <style>
      .cls-1 {
        fill: #404066;
      }

      .cls-1, .cls-2, .cls-3 {
        stroke-width: 0px;
      }

      .cls-2 {
        fill: #8279ff;
      }

      .cls-3 {
        fill: #f2f2f2;
      }
    </style>
  </defs>
  <g id="logo">
    <path class="cls-2" d="m101,150h-52C13.85,150,0,136.15,0,101v-51C0,14.34,14.34,0,50,0h50c35.66,0,50,14.34,50,50v51c0,35.15-13.85,49-49,49Z"/>
    <path class="cls-3" d="m149.7,109.34c-2.16,29.02-16.48,40.66-48.7,40.66h-52c-10.64,0-19.34-1.27-26.28-4.02-.55-2.22-.84-4.53-.84-6.92,0-15.82,12.83-28.65,28.65-28.65,2.37,0,4.68.29,6.88.84,1.71-24.04,21.75-43.01,46.23-43.01s43.46,17.97,46.06,41.1Z"/>
    <circle class="cls-1" cx="39.59" cy="39.59" r="17.71"/>
  </g>
</svg>